
<svg width="50" height="50" viewBox="0 0 50 50" fill="none" xmlns="http://www.w3.org/2000/svg">
    <path fill="#2C3E40" fill-rule="evenodd" clip-rule="evenodd" d="M25.0001 6.16669C14.5987 6.16669 6.16675 14.5987 6.16675 25C6.16675 35.4014 14.5987 43.8334 25.0001 43.8334C35.4014 43.8334 43.8334 35.4014 43.8334 25C43.8334 14.5987 35.4014 6.16669 25.0001 6.16669ZM2.16675 25C2.16675 12.3895 12.3896 2.16669 25.0001 2.16669C37.6106 2.16669 47.8334 12.3895 47.8334 25C47.8334 37.6105 37.6106 47.8334 25.0001 47.8334C12.3896 47.8334 2.16675 37.6105 2.16675 25Z"/>
    <path fill="#2C3E40" fill-rule="evenodd" clip-rule="evenodd" d="M26.4142 15.2525C25.6332 14.4714 24.3668 14.4714 23.5858 15.2525C22.8047 16.0335 22.8047 17.2999 23.5858 18.0809L28.5049 23H16.6667C15.5622 23 14.6667 23.8954 14.6667 25C14.6667 26.1046 15.5622 27 16.6667 27H28.5049L23.5858 31.9191C22.8047 32.7002 22.8047 33.9665 23.5858 34.7476C24.3668 35.5286 25.6332 35.5286 26.4142 34.7476L34.7383 26.4235C34.773 26.3892 34.8065 26.3537 34.8386 26.317C34.9662 26.1715 35.0691 26.0119 35.1473 25.8437C35.2667 25.5873 35.3334 25.3014 35.3334 25C35.3334 24.6907 35.2632 24.3978 35.1378 24.1364C35.0671 23.9885 34.9771 23.8475 34.8679 23.7172C34.8261 23.6673 34.7819 23.6194 34.7356 23.5738L26.4142 15.2525Z"/>
</svg>