<svg width="24" height="28" viewBox="0 0 29 32" fill="none" xmlns="http://www.w3.org/2000/svg">
<path fill-rule="evenodd" clip-rule="evenodd" d="M3.91667 15.125C2.85812 15.125 2 15.9831 2 17.0417V27.25C2 28.3085 2.85812 29.1667 3.91667 29.1667H24.3333C25.3919 29.1667 26.25 28.3085 26.25 27.25V17.0417C26.25 15.9831 25.3919 15.125 24.3333 15.125H3.91667ZM0 17.0417C0 14.8786 1.75355 13.125 3.91667 13.125H24.3333C26.4964 13.125 28.25 14.8786 28.25 17.0417V27.25C28.25 29.4131 26.4964 31.1667 24.3333 31.1667H3.91667C1.75355 31.1667 0 29.4131 0 27.25V17.0417Z" fill="#242729"/>
<path fill-rule="evenodd" clip-rule="evenodd" d="M14.1249 2C12.4563 2 10.856 2.66287 9.67604 3.84279C8.49612 5.0227 7.83325 6.62301 7.83325 8.29167V14.125C7.83325 14.6773 7.38554 15.125 6.83325 15.125C6.28097 15.125 5.83325 14.6773 5.83325 14.125V8.29167C5.83325 6.09258 6.70684 3.98356 8.26182 2.42857C9.81681 0.873584 11.9258 0 14.1249 0C16.324 0 18.433 0.873584 19.988 2.42857C21.543 3.98356 22.4166 6.09258 22.4166 8.29167V14.125C22.4166 14.6773 21.9689 15.125 21.4166 15.125C20.8643 15.125 20.4166 14.6773 20.4166 14.125V8.29167C20.4166 6.62301 19.7537 5.0227 18.5738 3.84279C17.3939 2.66287 15.7936 2 14.1249 2Z" fill="#242729"/>
</svg>
