<svg width="50" height="50" viewBox="0 0 50 50" fill="none" xmlns="http://www.w3.org/2000/svg">
    <path fill="#2C3E40" fill-rule="evenodd" clip-rule="evenodd"
        d="M25.0001 6.16669C14.5987 6.16669 6.16675 14.5987 6.16675 25C6.16675 35.4014 14.5987 43.8334 25.0001 43.8334C35.4014 43.8334 43.8334 35.4014 43.8334 25C43.8334 14.5987 35.4014 6.16669 25.0001 6.16669ZM2.16675 25C2.16675 12.3895 12.3896 2.16669 25.0001 2.16669C37.6106 2.16669 47.8334 12.3895 47.8334 25C47.8334 37.6105 37.6106 47.8334 25.0001 47.8334C12.3896 47.8334 2.16675 37.6105 2.16675 25Z" />
    <path fill="#2C3E40" fill-rule="evenodd" clip-rule="evenodd"
        d="M23.586 15.2525C24.3671 14.4714 25.6334 14.4714 26.4145 15.2525C27.1955 16.0335 27.1955 17.2999 26.4145 18.0809L21.4954 23H33.3335C34.4381 23 35.3335 23.8954 35.3335 25C35.3335 26.1046 34.4381 27 33.3335 27H21.4953L26.4145 31.9191C27.1955 32.7002 27.1955 33.9665 26.4145 34.7476C25.6334 35.5286 24.3671 35.5286 23.586 34.7476L15.262 26.4235C15.2273 26.3892 15.1938 26.3537 15.1616 26.317C15.0341 26.1715 14.9312 26.0119 14.853 25.8437C14.7335 25.5873 14.6668 25.3014 14.6668 25C14.6668 24.6907 14.737 24.3978 14.8624 24.1364C14.9332 23.9885 15.0232 23.8475 15.1324 23.7172C15.1741 23.6673 15.2183 23.6194 15.2647 23.5738L23.586 15.2525Z" />
</svg>