<svg width="147" height="126" viewBox="0 0 147 126" fill="none" xmlns="http://www.w3.org/2000/svg">
<path d="M2.42384 84.3579C0.601429 76.0135 0.462606 68.155 2.00737 60.7822C3.61303 53.3524 6.41364 46.5226 10.4092 40.2929C14.4657 34.0061 19.4727 28.3765 25.4305 23.4042C31.4616 18.4319 37.9546 14.2311 44.9097 10.8019C51.9257 7.31559 59.1961 4.65797 66.7208 2.82908C74.3064 0.943025 81.6944 0 88.8848 0C95.2681 0 101.446 0.57153 107.419 1.71459C113.465 2.85765 118.981 4.60082 123.969 6.94409C129.03 9.28737 133.457 12.2593 137.252 15.86C141.034 19.4035 143.963 23.5756 146.039 28.3765C146.175 28.6622 146.267 28.9194 146.317 29.148C146.367 29.3767 146.424 29.6338 146.486 29.9196C146.973 32.1486 146.503 33.8632 145.078 35.0634C143.713 36.2064 142.077 36.778 140.17 36.778C138.042 36.778 135.867 35.8921 133.646 34.1204C131.425 32.3486 129.115 29.8339 126.716 26.5762C123.127 22.5754 118.565 19.6606 113.03 17.8317C107.494 16.0028 101.498 15.0884 95.0416 15.0884C89.392 15.0884 83.6236 15.8885 77.7365 17.4888C71.9228 19.0891 66.2893 21.3467 60.8361 24.2615C55.4562 27.1763 50.4642 30.6912 45.86 34.8062C41.2434 38.8641 37.387 43.3792 34.2908 48.3515C31.1821 53.2666 29.0045 58.5819 27.7581 64.2972C26.585 70.0125 26.6663 75.9278 28.0019 82.0432C29.1129 87.1298 30.8561 91.4163 33.2317 94.9026C35.6073 98.3889 38.353 101.218 41.4687 103.39C44.5844 105.562 47.8992 107.133 51.4131 108.105C54.927 109.077 58.3715 109.562 61.7466 109.562C69.3039 109.562 76.1448 107.962 82.2694 104.762C88.4673 101.561 93.5219 96.9887 97.4331 91.0448C101.332 85.0437 103.886 77.7567 105.095 69.1837C106.292 60.5536 105.711 50.8376 103.352 40.0357C103.114 38.9498 102.847 37.8925 102.549 36.8637C102.312 35.7778 102.068 34.6633 101.819 33.5203C101.194 30.6626 101.399 28.5765 102.433 27.262C103.454 25.8903 104.808 25.2045 106.496 25.2045C109.357 25.2045 111.806 25.8332 113.841 27.0905C115.938 28.2908 117.724 29.9196 119.201 31.9771C120.665 33.9775 121.867 36.2922 122.808 38.9212C123.81 41.4931 124.611 44.1507 125.21 46.8941C126.908 54.6669 127.448 62.011 126.83 68.9266C126.2 75.7849 124.621 82.1575 122.091 88.0442C119.622 93.8739 116.295 99.1319 112.109 103.818C107.984 108.448 103.269 112.391 97.9642 115.649C92.6468 118.85 86.8431 121.336 80.5532 123.108C74.3242 124.822 67.8346 125.68 61.0845 125.68C54.8479 125.68 48.6082 124.994 42.3655 123.622C36.1104 122.193 30.2854 119.878 24.8906 116.678C19.5567 113.42 14.8848 109.162 10.875 103.904C6.92599 98.589 4.10895 92.0735 2.42384 84.3579Z" fill="#D99036"/>
</svg>
