<svg width="145" height="114" viewBox="0 0 145 114" fill="none" xmlns="http://www.w3.org/2000/svg">
<path d="M120.185 9.52128C121.481 8.49591 122.948 7.59261 124.586 6.81138C126.214 5.98132 127.91 5.29774 129.674 4.76064C131.427 4.17471 133.177 3.73527 134.922 3.44231C136.656 3.10052 138.247 2.92962 139.694 2.92962C141.359 2.92962 142.559 3.12493 143.296 3.51555C144.104 3.90617 144.584 4.44326 144.733 5.12684C144.957 6.15221 144.557 7.47054 143.534 9.08184C142.573 10.6443 141.338 12.28 139.83 13.989C138.384 15.6491 136.818 17.2604 135.133 18.8228C133.521 20.3853 132.17 21.6548 131.081 22.6313C122.86 30.0531 115.081 37.0109 107.744 43.5049C100.479 49.9989 93.5156 56.0535 86.8545 61.6686C89.3932 65.6724 91.7115 69.1635 93.8092 72.142C95.907 75.1204 97.9099 77.8304 99.8179 80.2717C101.715 82.6642 103.575 84.8859 105.398 86.9366C107.221 88.9873 109.194 91.0625 111.317 93.162C113.429 95.2128 115.718 97.41 118.183 99.7537C120.638 102.049 123.457 104.685 126.641 107.664C127.098 108.103 127.375 108.543 127.471 108.982C127.599 109.568 127.386 110.081 126.83 110.52C126.347 110.96 125.668 111.326 124.791 111.619C123.997 111.96 123.037 112.205 121.912 112.351C120.869 112.546 119.841 112.644 118.828 112.644C116.006 112.644 113.076 111.985 110.038 110.667C107.011 109.397 103.653 107.273 99.9631 104.295C96.2627 101.267 92.1373 97.2879 87.5869 92.3564C83.1088 87.4249 77.9407 81.3215 72.0824 74.0462C65.3489 79.6614 59.36 84.5441 54.1157 88.6944C48.9331 92.7958 44.3099 96.3114 40.2462 99.241C36.2549 102.171 32.689 104.563 29.5485 106.419C26.4803 108.274 23.6834 109.714 21.1576 110.74C18.7148 111.814 16.4506 112.546 14.3651 112.937C12.2795 113.328 10.1875 113.523 8.089 113.523C6.42468 113.523 4.90813 113.206 3.53934 112.571C2.0982 111.936 1.19634 110.789 0.83377 109.129C0.50319 107.615 0.933552 106.272 2.12486 105.1C3.2438 103.928 4.68418 102.903 6.446 102.024C8.19716 101.096 9.9803 100.315 11.7954 99.6805C13.6723 98.9969 15.0948 98.3865 16.0629 97.8494C19.061 96.3358 22.294 94.4071 25.762 92.0634C29.2918 89.6709 33.0363 86.9366 36.9956 83.8605C40.955 80.7844 45.1036 77.4153 49.4415 73.7533C53.7687 70.0424 58.2597 66.0874 62.9145 61.8883C57.9375 55.0037 53.7356 48.8515 50.3087 43.4317C46.8711 37.963 43.8083 32.885 41.1202 28.1976C39.3737 25.1704 37.8103 22.4849 36.4301 20.1412C35.0392 17.7486 34.1891 15.8444 33.8799 14.4284C33.5919 13.1101 33.9541 11.6208 34.9664 9.96072C36.0511 8.3006 37.4827 6.73814 39.2613 5.27332C41.0292 3.75968 43.0005 2.51459 45.1752 1.53805C47.3392 0.512684 49.398 0 51.3518 0C53.595 0 55.7248 0.805647 57.741 2.41694C59.7466 3.97941 61.1759 6.71372 62.029 10.6199C62.189 11.3523 62.2446 11.9382 62.1958 12.3777C62.2088 12.7683 62.1387 13.1101 61.9856 13.403C61.8325 13.696 61.6432 13.989 61.4177 14.2819C61.1923 14.5749 60.952 14.9655 60.6968 15.4538C60.6564 15.6002 60.6896 15.9176 60.7962 16.4059C61.2014 18.2613 62.8737 21.7769 65.8132 26.9525C68.7526 32.1282 72.7515 38.8419 77.81 47.0937C77.8313 47.1914 77.9464 47.3867 78.1551 47.6796L83.5319 42.4796C87.038 39.6476 90.1877 36.84 92.9809 34.0569C95.8357 31.2249 98.6289 28.4418 101.36 25.7075C104.081 22.9243 106.921 20.19 109.88 17.5045C112.901 14.7702 116.336 12.1091 120.185 9.52128Z" fill="#609A90"/>
</svg>
